<svg width="24" height="24" viewBox="0 0 24 24" fill="none" xmlns="http://www.w3.org/2000/svg">
<path fill-rule="evenodd" clip-rule="evenodd" d="M12.0001 3.12693C14.8919 3.12693 15.2313 3.13982 16.3743 3.19138C17.4313 3.23865 18.0028 3.41482 18.3853 3.56521C18.8923 3.76287 19.2532 3.9949 19.6313 4.37302C20.0095 4.75115 20.2458 5.11209 20.4392 5.61912C20.5853 6.00154 20.7657 6.57302 20.813 7.63005C20.8646 8.77302 20.8774 9.11248 20.8774 12.0043C20.8774 14.8961 20.8646 15.2355 20.813 16.3785C20.7657 17.4355 20.5896 18.007 20.4392 18.3894C20.2415 18.8965 20.0095 19.2574 19.6313 19.6355C19.2532 20.0136 18.8923 20.25 18.3853 20.4433C18.0028 20.5894 17.4313 20.7699 16.3743 20.8172C15.2313 20.8687 14.8919 20.8816 12.0001 20.8816C9.1083 20.8816 8.76885 20.8687 7.62588 20.8172C6.56885 20.7699 5.99736 20.5937 5.61494 20.4433C5.10791 20.2457 4.74697 20.0136 4.36885 19.6355C3.99072 19.2574 3.75439 18.8965 3.56104 18.3894C3.41494 18.007 3.23447 17.4355 3.18721 16.3785C3.13564 15.2355 3.12275 14.8961 3.12275 12.0043C3.12275 9.11248 3.13564 8.77302 3.18721 7.63005C3.23447 6.57302 3.41064 6.00154 3.56104 5.61912C3.75869 5.11209 3.99072 4.75115 4.36885 4.37302C4.74697 3.9949 5.10791 3.75857 5.61494 3.56521C5.99736 3.41912 6.56885 3.23865 7.62588 3.19138C8.76885 3.13552 9.1083 3.12693 12.0001 3.12693ZM12.0001 1.17615C9.06103 1.17615 8.6915 1.18904 7.53564 1.2406C6.38408 1.29216 5.59775 1.47693 4.91025 1.74333C4.19697 2.01833 3.59541 2.39216 2.99385 2.99373C2.39229 3.59529 2.02275 4.20115 1.74346 4.91013C1.47705 5.59763 1.29229 6.38396 1.24072 7.53982C1.18916 8.69138 1.17627 9.06091 1.17627 12C1.17627 14.939 1.18916 15.3086 1.24072 16.4644C1.29229 17.616 1.47705 18.4023 1.74346 19.0941C2.01846 19.8074 2.39229 20.409 2.99385 21.0105C3.59541 21.6121 4.20127 21.9816 4.91025 22.2609C5.59775 22.5273 6.38408 22.7121 7.53994 22.7636C8.6958 22.8152 9.06104 22.8281 12.0044 22.8281C14.9478 22.8281 15.313 22.8152 16.4688 22.7636C17.6204 22.7121 18.4067 22.5273 19.0985 22.2609C19.8118 21.9859 20.4134 21.6121 21.0149 21.0105C21.6165 20.409 21.986 19.8031 22.2653 19.0941C22.5317 18.4066 22.7165 17.6203 22.7681 16.4644C22.8196 15.3086 22.8325 14.9433 22.8325 12C22.8325 9.05662 22.8196 8.69138 22.7681 7.53552C22.7165 6.38396 22.5317 5.59763 22.2653 4.90584C21.9903 4.19255 21.6165 3.59099 21.0149 2.98943C20.4134 2.38787 19.8075 2.01833 19.0985 1.73904C18.411 1.47263 17.6247 1.28787 16.4688 1.2363C15.3087 1.18904 14.9392 1.17615 12.0001 1.17615ZM12.0001 6.43982C8.93213 6.43982 6.43994 8.92771 6.43994 12C6.43994 15.0722 8.93213 17.5601 12.0001 17.5601C15.0681 17.5601 17.5603 15.0679 17.5603 12C17.5603 8.93201 15.0681 6.43982 12.0001 6.43982ZM12.0001 15.6094C10.0063 15.6094 8.39072 13.9937 8.39072 12C8.39072 10.0062 10.0063 8.3906 12.0001 8.3906C13.9938 8.3906 15.6095 10.0062 15.6095 12C15.6095 13.9937 13.9938 15.6094 12.0001 15.6094ZM19.0768 6.22069C19.0768 6.93737 18.4958 7.51835 17.7791 7.51835C17.0624 7.51835 16.4814 6.93737 16.4814 6.22069C16.4814 5.50401 17.0624 4.92303 17.7791 4.92303C18.4958 4.92303 19.0768 5.50401 19.0768 6.22069Z" fill="#D4D7E6"/>
</svg>
